<svg id="Business_Card_Front_" data-name="Business Card (Front)" xmlns="http://www.w3.org/2000/svg" xmlns:xlink="http://www.w3.org/1999/xlink" viewBox="0 0 343.96 556.02"><defs><style>.cls-1{fill:none;}.cls-2{clip-path:url(#clip-path);}.cls-3{fill:#ffe383;}.cls-4{fill:#cea1ca;}.cls-5{fill:#f9cfe3;}.cls-6{fill:#bad6ea;}.cls-7{fill:#ef7c9b;}.cls-8{fill:#a9d7d2;}.cls-9{fill:#ffcc18;}.cls-10{fill:#fad4cc;}.cls-11{fill:#f5a77b;}.cls-12{fill:#b5b8dc;}</style><clipPath id="clip-path"><rect class="cls-1" width="343.96" height="556.02"/></clipPath></defs><g class="cls-2"><path class="cls-3" d="M47.85,242.56a2.45,2.45,0,0,0,3.39-.24,37.15,37.15,0,0,1,18.69-10.24,30.79,30.79,0,0,1,21.47,3.16,57.18,57.18,0,0,1,12.07,9.45c2.22,2.16,5.36-1.48,3.15-3.63-6.78-6.59-14.69-12.5-24.24-14a39.16,39.16,0,0,0-23.65,4,42.16,42.16,0,0,0-11.13,8.16A2.43,2.43,0,0,0,47.85,242.56Z"/><path class="cls-4" d="M115.11,261.55a2.19,2.19,0,0,0,1-.56,2.31,2.31,0,0,0,.65-1.57v-.53a1.77,1.77,0,0,0-.19-.85,1.75,1.75,0,0,0-.46-.71,1.65,1.65,0,0,0-.71-.46,1.68,1.68,0,0,0-.85-.19l-.59.08a2.21,2.21,0,0,0-1,.57,2.31,2.31,0,0,0-.64,1.56v.53a1.54,1.54,0,0,0,.19.85,1.69,1.69,0,0,0,.45.72,1.72,1.72,0,0,0,.71.45,1.7,1.7,0,0,0,.86.19Z"/><path class="cls-5" d="M67.35,264.48c0-.05,0-.1,0-.15a20,20,0,0,1,6.52-10.5c3.25-2.81,7.38-4.76,11.76-4.31,2.82.28,3.46-4.09.63-4.38-9.22-.93-17.57,5.53-21.52,13.48a19.2,19.2,0,0,0-1.84,5.86Z"/><path class="cls-6" d="M128.74,236.6c-1,1.74-1.91,3.5-2.75,5.31s-1.65,3.43-1.44,5.33c.42,4,4.85,4.91,8.14,4.66a41.8,41.8,0,0,0,13.49-3.54c2.2-1,1.28-4-.63-4.23a72.44,72.44,0,0,0-7.53-7.74c-1.33-1.18-3-3.07-4.84-3.31C130.84,232.79,129.71,234.88,128.74,236.6Zm6.07,2.83c.94.81,1.85,1.64,2.73,2.51q1.82,1.78,3.49,3.7a37.55,37.55,0,0,1-4.42,1.22c-2.08.42-4.68,1.1-6.79.5-.47-.13-.87-.34-.9-.68-.09-1,.79-2.3,1.19-3.17.56-1.21,1.16-2.41,1.8-3.58.3-.56.63-1.37,1.05-2a2.43,2.43,0,0,1,.29.21C133.78,238.55,134.3,239,134.81,239.43Z"/><path class="cls-5" d="M170,269.56l-6.55-10.83c-.52-.86-1.05-1.71-1.56-2.59a3.65,3.65,0,0,0-.35-.64c1.09-.42,2.39-.94,3.57-1.36a48.59,48.59,0,0,0,5.73-2.52v-5.46a42.93,42.93,0,0,1-5,2.45c-1.61.66-3.29,1.1-4.91,1.76a5.79,5.79,0,0,0-3.73,3.65c-.66,2.38.65,4.33,1.78,6.2l7.15,11.84C167.76,274.68,171.59,272.2,170,269.56Z"/><path class="cls-5" d="M157.44,265.53a.19.19,0,0,0,0,.08C157.42,265.76,157,265.72,157.44,265.53Z"/><path class="cls-7" d="M167.75,228.14a2.43,2.43,0,0,0,1.68-3,25.59,25.59,0,0,0-8.31-12.07,17.86,17.86,0,0,0-14.64-3.41c-3,.66-1.74,5.29,1.28,4.63,8.1-1.77,14.57,5.16,17,12.13A2.48,2.48,0,0,0,167.75,228.14Z"/><path class="cls-5" d="M280.28,84.63a2.43,2.43,0,0,0,2.07-2.7,25.63,25.63,0,0,0-6.55-13.1,17.87,17.87,0,0,0-14-5.42c-3.09.23-2.47,5,.62,4.76,8.27-.63,13.71,7.14,15.18,14.38A2.47,2.47,0,0,0,280.28,84.63Z"/><path class="cls-8" d="M55.81,276.48c-.4-2.28-.7-4.6-1.06-6.89-.86-5.46-3-10.56-7.81-13.58a16.32,16.32,0,0,0-15.79-.79c-2.55,1.27-.31,5.09,2.23,3.81a11.89,11.89,0,0,1,12.19,1.37c4.44,3.37,4.79,9.42,5.49,14.51.07.52.16,1,.24,1.57Z"/><path class="cls-3" d="M47.85,242.56a2.45,2.45,0,0,0,3.39-.24,37.15,37.15,0,0,1,18.69-10.24,30.79,30.79,0,0,1,21.47,3.16,57.18,57.18,0,0,1,12.07,9.45c2.22,2.16,5.36-1.48,3.15-3.63-6.78-6.59-14.69-12.5-24.24-14a39.16,39.16,0,0,0-23.65,4,42.16,42.16,0,0,0-11.13,8.16A2.43,2.43,0,0,0,47.85,242.56Z"/><path class="cls-9" d="M148.43,191.07a98,98,0,0,0,12.12-5.41c3.18-1.67,6.29-3.45,9.38-5.27v-5.58c-6.47,3.84-13,7.71-20,10.55a59.32,59.32,0,0,1-11.5,3.55,6.74,6.74,0,0,1-5.08-.85,31,31,0,0,1-4.29-3.55,70.76,70.76,0,0,1-9-10,2.48,2.48,0,0,0-3.29-.86,2.43,2.43,0,0,0-.86,3.29,77.44,77.44,0,0,0,8.6,9.93c3,2.91,6.45,6.41,10.81,6.93a19.08,19.08,0,0,0,6.91-.84A62.86,62.86,0,0,0,148.43,191.07Z"/><path class="cls-5" d="M157.12,150.26a15.15,15.15,0,0,0,1-13.61c-1.59-3.83-4.84-6.64-8.17-9s-6.79-4.13-9.56-7a14.54,14.54,0,0,1-4.15-9.5,15,15,0,0,1,3.75-11,2.47,2.47,0,0,0,.19-3.4,2.42,2.42,0,0,0-3.39-.19,20.28,20.28,0,0,0-3.13,23c2,3.73,5.22,6.42,8.64,8.75,3.24,2.2,6.82,4.13,9.43,7.1a10.29,10.29,0,0,1,1.36,12.13C151.53,150.26,155.54,152.92,157.12,150.26Z"/><path class="cls-7" d="M167.75,228.14a2.43,2.43,0,0,0,1.68-3,25.59,25.59,0,0,0-8.31-12.07,17.86,17.86,0,0,0-14.64-3.41c-3,.66-1.74,5.29,1.28,4.63,8.1-1.77,14.57,5.16,17,12.13A2.48,2.48,0,0,0,167.75,228.14Z"/><path class="cls-9" d="M133.45,217.73c0-3.1-4.81-3.1-4.81,0S133.45,220.82,133.45,217.73Z"/><path class="cls-9" d="M147.89,79.42c2.45-4.2,2.44-9.4,1.31-14a25.49,25.49,0,0,0-4.23-9,32.38,32.38,0,0,1,3.28-2.2c4.62-2.72,10.12-3.82,15.21-1.75a2.41,2.41,0,0,0,2.95-1.68,2.45,2.45,0,0,0-1.68-2.95c-8.12-3.31-16.3-.06-22.86,5l-.77-.71c-3.82-3.43-8.07-6.21-10.56-10.85a20.74,20.74,0,0,1,7-27.06c2.59-1.67.18-5.83-2.43-4.15a25.65,25.65,0,0,0-11.78,23.22,25.87,25.87,0,0,0,4.66,13c2.83,3.9,6.78,6.48,10.24,9.72-.72.69-1.41,1.4-2.07,2.1-3.54,3.83-6.61,8.39-7,13.73a12.29,12.29,0,0,0,6.93,11.73C140.63,85.57,145.46,83.57,147.89,79.42Zm-13-3.41c-2-3.77-.15-8.09,2.09-11.3a36.51,36.51,0,0,1,4.39-5.15,21.36,21.36,0,0,1,3.59,8.88c.53,3.31.28,7.53-2.31,10S136.39,78.83,134.85,76Z"/><path class="cls-10" d="M133.2,151.22a3.53,3.53,0,0,0,.15-.46,10.26,10.26,0,0,0,0-11.34,10,10,0,0,0-11.49-4,11.31,11.31,0,0,0-8,9.86,11,11,0,0,0,6.84,11C125.27,158,131.24,155.82,133.2,151.22Zm-10,1.23c-2.75-.39-4.66-3-4.93-5.67a6.59,6.59,0,0,1,3.71-6.63,5.81,5.81,0,0,1,7,.8c1.79,1.87,2.41,5.27.86,7.27a3.19,3.19,0,0,0-.49.88A5.88,5.88,0,0,1,123.19,152.45Z"/><path class="cls-4" d="M115.11,2.05a2.19,2.19,0,0,0,1-.56,2.31,2.31,0,0,0,.65-1.57V-.61a1.77,1.77,0,0,0-.19-.85,1.75,1.75,0,0,0-.46-.71,1.65,1.65,0,0,0-.71-.46,1.68,1.68,0,0,0-.85-.19l-.59.08a2.21,2.21,0,0,0-1,.57,2.31,2.31,0,0,0-.64,1.56v.53a1.54,1.54,0,0,0,.19.85,1.69,1.69,0,0,0,.45.72,1.72,1.72,0,0,0,.71.45,1.7,1.7,0,0,0,.86.19Z"/><path class="cls-7" d="M110.26,59.86c2.94-3.27,2.25-8.33-.8-11.33A10.28,10.28,0,0,0,92.4,58a9.44,9.44,0,0,0,17.86,1.88Zm-9.61,1.07a5.21,5.21,0,0,1-3.85-6.4,6.14,6.14,0,0,1,7.57-4.07c1.88.61,3.69,2.82,3.41,4.82a2,2,0,0,0-1.09,1.35C106.15,59.33,103.49,61.56,100.65,60.93Z"/><path class="cls-5" d="M68.43,44.84A17.69,17.69,0,0,0,72.58,32C72.25,27.75,70,24,68,20.36s-3.54-7.29-2.66-11.53a20,20,0,0,1,6.52-10.5C75.14-4.48,79.27-6.43,83.65-6c2.82.28,3.46-4.09.63-4.38-9.22-.93-17.57,5.53-21.52,13.48a18,18,0,0,0-1.07,14.13c1.42,4,4.1,7.46,5.61,11.45A13.2,13.2,0,0,1,65,42.09C63.11,44.26,66.58,47,68.43,44.84Z"/><path class="cls-5" d="M155.33,30.66l3-12.28c.25-1,.47-2,.73-2.93a5.31,5.31,0,0,0,.21-.71c1.06.47,2.35,1,3.48,1.56a47.91,47.91,0,0,0,4.88,2l3.85-3.85A43.7,43.7,0,0,1,167.24,13c-1.62-.67-3.11-1.55-4.72-2.23a5.78,5.78,0,0,0-5.22-.06c-2.15,1.22-2.61,3.52-3.13,5.65l-3.31,13.42C150.13,32.71,154.59,33.67,155.33,30.66Z"/><path class="cls-5" d="M157.44,6a.19.19,0,0,0,0,.08C157.42,6.26,157,6.22,157.44,6Z"/><path class="cls-5" d="M32.41,187.29c5.24-1,9-6,9.14-11.25a2.12,2.12,0,0,0-.63-1.66,11.32,11.32,0,0,0-7.4-9.3,11.56,11.56,0,0,0-12.73,4,11.8,11.8,0,0,0-.52,13.18A12,12,0,0,0,32.41,187.29ZM25,180.5a6.81,6.81,0,0,1-1-7.56,6.71,6.71,0,0,1,6.87-3.58,6.39,6.39,0,0,1,5.29,6.69,2.16,2.16,0,0,0,.38,1.41,7.07,7.07,0,0,1-4.09,4.83A7,7,0,0,1,25,180.5Z"/><path class="cls-3" d="M-9.67,108v4.73c5.8-.8,11.63-1.38,17.42-1.86q9-.73,18.11-.94c3.09-.07,3.1-4.87,0-4.8A309.07,309.07,0,0,0-9,107.93Z"/><path class="cls-11" d="M14.85,152a9,9,0,0,1,.3-9.24,13.51,13.51,0,0,1,8.75-5.65c4.05-.86,8.43-.09,12.29-1.86,3.46-1.58,6.17-4.65,6-8.63-.13-3.1-4.92-2.67-4.79.41.14,3.23-4.25,4.39-6.77,4.64-4.37.43-8.58.43-12.6,2.45A16.14,16.14,0,0,0,9.76,143,13.55,13.55,0,0,0,11,154.85C12.61,157.46,16.51,154.65,14.85,152Z"/><path class="cls-8" d="M56.94,22.9c.9-2.71-3.37-3.87-4.26-1.18-1.39,4.21-6.26,6.42-10.45,5.84-5-.69-9-4.52-11.32-8.8-2.8-5.18-3.26-11-4.16-16.67-.86-5.46-2.95-10.56-7.81-13.58a16.32,16.32,0,0,0-15.79-.79C.6-11,2.84-7.19,5.38-8.47A11.89,11.89,0,0,1,17.57-7.1C22-3.73,22.36,2.32,23.06,7.41c.8,5.87,2.37,11.86,6,16.66,3.38,4.44,8.43,7.77,14.13,8A14,14,0,0,0,56.94,22.9Z"/><path class="cls-12" d="M34.14,217.87a114.38,114.38,0,0,0,23.93-7.76,2.23,2.23,0,0,0,.8-3,2.27,2.27,0,0,0-3-.79A109.06,109.06,0,0,1,35,213.17c-1.49.34-3.29,1-4.85.75-1.26-.18-1.71-1.57-2.2-2.58q-2.43-5-4.48-10.21a2.28,2.28,0,0,0-2.72-1.54,2.23,2.23,0,0,0-1.54,2.72c1.56,3.94,3.23,7.84,5.11,11.64a7.34,7.34,0,0,0,3.92,4C30.14,218.67,32.22,218.26,34.14,217.87Z"/><path class="cls-11" d="M19.71,34.68c0-2.85-4.42-2.85-4.42,0S19.71,37.53,19.71,34.68Z"/><path class="cls-8" d="M127.82,93.32c0-2.85-4.42-2.85-4.42,0S127.82,96.16,127.82,93.32Z"/><path class="cls-12" d="M35.79,66.47C41.66,63,41.63,54,40.52,48.25a2.21,2.21,0,1,0-4.26,1.17,21.25,21.25,0,0,1,0,8.7c-.42,1.75-1.23,4-3.06,4.75a5.73,5.73,0,0,1-3.61-.13c-1.58-.42-3.15-.94-4.72-1.41l-9.72-3c-2.73-.83-3.89,3.43-1.17,4.26l11.4,3.47C28.74,67.14,32.45,68.43,35.79,66.47Z"/><path class="cls-3" d="M230.8,242.56a2.45,2.45,0,0,0,3.39-.24,37.18,37.18,0,0,1,18.7-10.24,30.76,30.76,0,0,1,21.46,3.16,57.49,57.49,0,0,1,12.08,9.45c2.22,2.16,5.36-1.48,3.14-3.63-6.77-6.59-14.68-12.5-24.23-14a39.19,39.19,0,0,0-23.66,4,42.28,42.28,0,0,0-11.12,8.16A2.43,2.43,0,0,0,230.8,242.56Z"/><path class="cls-4" d="M298.07,261.55a2.16,2.16,0,0,0,1-.56,2.31,2.31,0,0,0,.65-1.57v-.53a2.43,2.43,0,0,0-.65-1.56,1.59,1.59,0,0,0-.71-.46,1.64,1.64,0,0,0-.85-.19l-.59.08a2.23,2.23,0,0,0-1,.57,2.27,2.27,0,0,0-.65,1.56v.53a2.49,2.49,0,0,0,.65,1.57,1.72,1.72,0,0,0,.71.45,1.66,1.66,0,0,0,.85.19Z"/><path class="cls-5" d="M250.3,264.48l0-.15a19.94,19.94,0,0,1,6.51-10.5c3.25-2.81,7.39-4.76,11.77-4.31,2.82.28,3.46-4.09.62-4.38-9.21-.93-17.57,5.53-21.52,13.48a19.77,19.77,0,0,0-1.84,5.86Z"/><path class="cls-6" d="M311.69,236.6c-1,1.74-1.9,3.5-2.75,5.31s-1.64,3.43-1.44,5.33c.42,4,4.85,4.91,8.14,4.66a41.86,41.86,0,0,0,13.5-3.54c2.19-1,1.27-4-.63-4.23a72.53,72.53,0,0,0-7.54-7.74c-1.32-1.18-3-3.07-4.84-3.31C313.8,232.79,312.66,234.88,311.69,236.6Zm6.08,2.83c.93.81,1.84,1.64,2.73,2.51q1.81,1.78,3.49,3.7a37.18,37.18,0,0,1-4.43,1.22c-2.08.42-4.68,1.1-6.78.5-.47-.13-.87-.34-.91-.68-.08-1,.79-2.3,1.2-3.17.56-1.21,1.16-2.41,1.79-3.58.31-.56.63-1.37,1.05-2a2.59,2.59,0,0,1,.3.21C316.73,238.55,317.25,239,317.77,239.43Z"/><path class="cls-7" d="M277.69,30.92c-1,1.73-1.9,3.5-2.74,5.31s-1.65,3.43-1.45,5.33c.42,4,4.85,4.91,8.15,4.65a41.6,41.6,0,0,0,13.49-3.53c2.19-1,1.27-4-.63-4.24A74.29,74.29,0,0,0,287,30.71c-1.33-1.18-3-3.08-4.84-3.31C279.8,27.1,278.66,29.2,277.69,30.92Zm6.08,2.83c.93.81,1.85,1.64,2.73,2.51Q288.31,38,290,40a37.14,37.14,0,0,1-4.43,1.21c-2.07.43-4.67,1.11-6.78.51-.47-.13-.87-.34-.9-.68-.09-1,.79-2.3,1.19-3.17.56-1.21,1.16-2.41,1.8-3.59.3-.55.63-1.36,1.05-2,.1.07.21.14.29.21C282.73,32.87,283.26,33.3,283.77,33.75Z"/><path class="cls-5" d="M353,269.56l-6.55-10.83c-.52-.86-1.06-1.71-1.56-2.59a3.72,3.72,0,0,0-.36-.64c1.09-.42,2.39-.94,3.57-1.36a48,48,0,0,0,5.74-2.52v-5.46a43.75,43.75,0,0,1-5,2.45c-1.62.66-3.3,1.1-4.91,1.76a5.8,5.8,0,0,0-3.74,3.65c-.65,2.38.65,4.33,1.79,6.2l7.15,11.84C350.72,274.68,354.55,272.2,353,269.56Z"/><path class="cls-5" d="M340.4,265.53s0,.05,0,.08S340,265.72,340.4,265.53Z"/><path class="cls-7" d="M350.71,228.14a2.44,2.44,0,0,0,1.68-3,25.73,25.73,0,0,0-8.31-12.07,17.88,17.88,0,0,0-14.64-3.41c-3,.66-1.75,5.29,1.27,4.63,8.11-1.77,14.57,5.16,17,12.13A2.47,2.47,0,0,0,350.71,228.14Z"/><path class="cls-5" d="M207.87,246.6a2.42,2.42,0,0,0,2.08-2.69,25.63,25.63,0,0,0-6.55-13.1,17.9,17.9,0,0,0-14-5.43c-3.08.24-2.46,5,.62,4.77,8.28-.63,13.72,7.13,15.19,14.38A2.46,2.46,0,0,0,207.87,246.6Z"/><path class="cls-8" d="M238.77,276.48c-.4-2.28-.7-4.6-1.06-6.89-.86-5.46-3-10.56-7.81-13.58a16.34,16.34,0,0,0-15.8-.79c-2.54,1.27-.3,5.09,2.23,3.81a11.89,11.89,0,0,1,12.19,1.37c4.45,3.37,4.8,9.42,5.49,14.51.08.52.16,1,.25,1.57Z"/><path class="cls-3" d="M230.8,242.56a2.45,2.45,0,0,0,3.39-.24,37.18,37.18,0,0,1,18.7-10.24,30.76,30.76,0,0,1,21.46,3.16,57.49,57.49,0,0,1,12.08,9.45c2.22,2.16,5.36-1.48,3.14-3.63-6.77-6.59-14.68-12.5-24.23-14a39.19,39.19,0,0,0-23.66,4,42.28,42.28,0,0,0-11.12,8.16A2.43,2.43,0,0,0,230.8,242.56Z"/><path class="cls-9" d="M331.39,191.07a97.84,97.84,0,0,0,12.11-5.41c3.18-1.67,6.29-3.45,9.38-5.27v-5.58c-6.46,3.84-13,7.71-20,10.55a59.32,59.32,0,0,1-11.5,3.55,6.72,6.72,0,0,1-5.07-.85,30.41,30.41,0,0,1-4.29-3.55,70.76,70.76,0,0,1-9-10,2.49,2.49,0,0,0-3.29-.86,2.42,2.42,0,0,0-.86,3.29,76.67,76.67,0,0,0,8.6,9.93c3,2.91,6.44,6.41,10.8,6.93a19.14,19.14,0,0,0,6.92-.84A62.86,62.86,0,0,0,331.39,191.07Z"/><path class="cls-5" d="M340.08,150.26a15.18,15.18,0,0,0,1-13.61c-1.59-3.83-4.85-6.64-8.18-9s-6.79-4.13-9.55-7a14.54,14.54,0,0,1-4.15-9.5,15,15,0,0,1,3.75-11,2.48,2.48,0,0,0,.19-3.4,2.42,2.42,0,0,0-3.39-.19,20.28,20.28,0,0,0-3.13,23c2,3.73,5.22,6.42,8.64,8.75,3.23,2.2,6.82,4.13,9.43,7.1a10.28,10.28,0,0,1,1.35,12.13C334.48,150.26,338.49,152.92,340.08,150.26Z"/><path class="cls-7" d="M350.71,228.14a2.44,2.44,0,0,0,1.68-3,25.73,25.73,0,0,0-8.31-12.07,17.88,17.88,0,0,0-14.64-3.41c-3,.66-1.75,5.29,1.27,4.63,8.11-1.77,14.57,5.16,17,12.13A2.47,2.47,0,0,0,350.71,228.14Z"/><path class="cls-7" d="M112.36,352a2.42,2.42,0,0,0,1.68-3A25.56,25.56,0,0,0,105.73,337a17.83,17.83,0,0,0-14.64-3.42c-3,.66-1.74,5.29,1.28,4.63,8.11-1.77,14.57,5.16,17,12.13A2.46,2.46,0,0,0,112.36,352Z"/><path class="cls-9" d="M316.41,217.73c0-3.1-4.81-3.1-4.81,0S316.41,220.82,316.41,217.73Z"/><path class="cls-9" d="M330.85,79.42c2.45-4.2,2.44-9.4,1.31-14a25.84,25.84,0,0,0-4.23-9,31.29,31.29,0,0,1,3.28-2.2c4.62-2.72,10.11-3.82,15.2-1.75a2.42,2.42,0,0,0,3-1.68,2.45,2.45,0,0,0-1.68-2.95c-8.12-3.31-16.3-.06-22.86,5l-.77-.71c-3.83-3.43-8.08-6.21-10.57-10.85a20.75,20.75,0,0,1,7-27.06c2.59-1.67.19-5.83-2.42-4.15a25.61,25.61,0,0,0-11.78,23.22,25.87,25.87,0,0,0,4.66,13c2.82,3.9,6.78,6.48,10.23,9.72-.71.69-1.4,1.4-2.06,2.1-3.54,3.83-6.62,8.39-7,13.73a12.28,12.28,0,0,0,6.93,11.73C323.58,85.57,328.42,83.57,330.85,79.42Zm-13-3.41c-2.05-3.77-.15-8.09,2.08-11.3a36.51,36.51,0,0,1,4.39-5.15,21.24,21.24,0,0,1,3.6,8.88c.53,3.31.27,7.53-2.31,10S319.34,78.83,317.81,76Z"/><path class="cls-10" d="M316.15,151.22a2.51,2.51,0,0,0,.16-.46,10.26,10.26,0,0,0,0-11.34,10,10,0,0,0-11.49-4,11.32,11.32,0,0,0-8,9.86,11.05,11.05,0,0,0,6.84,11C308.22,158,314.2,155.82,316.15,151.22Zm-10,1.23c-2.75-.39-4.66-3-4.94-5.67a6.62,6.62,0,0,1,3.71-6.63,5.81,5.81,0,0,1,7,.8c1.8,1.87,2.42,5.27.86,7.27a3.15,3.15,0,0,0-.48.88A5.89,5.89,0,0,1,306.15,152.45Z"/><path class="cls-4" d="M298.07,2.05a2.16,2.16,0,0,0,1-.56,2.31,2.31,0,0,0,.65-1.57V-.61a1.66,1.66,0,0,0-.19-.85,1.65,1.65,0,0,0-.46-.71,1.59,1.59,0,0,0-.71-.46,1.64,1.64,0,0,0-.85-.19l-.59.08a2.23,2.23,0,0,0-1,.57,2.27,2.27,0,0,0-.65,1.56v.53a1.64,1.64,0,0,0,.19.85,1.62,1.62,0,0,0,.46.72,1.72,1.72,0,0,0,.71.45,1.66,1.66,0,0,0,.85.19Z"/><path class="cls-5" d="M251.38,44.84A17.69,17.69,0,0,0,255.53,32c-.32-4.29-2.53-8-4.55-11.68s-3.54-7.29-2.65-11.53a19.94,19.94,0,0,1,6.51-10.5c3.25-2.81,7.39-4.76,11.77-4.31,2.82.28,3.46-4.09.62-4.38-9.21-.93-17.57,5.53-21.52,13.48a18,18,0,0,0-1.06,14.13c1.42,4,4.09,7.46,5.61,11.45a13.22,13.22,0,0,1-2.34,13.39C246.06,44.26,249.53,47,251.38,44.84Z"/><path class="cls-5" d="M338.28,30.66l3-12.28c.24-1,.47-2,.73-2.93a4.14,4.14,0,0,0,.2-.71c1.07.47,2.35,1,3.49,1.56a46.12,46.12,0,0,0,4.88,2l3.85-3.85A44.84,44.84,0,0,1,350.19,13c-1.61-.67-3.11-1.55-4.71-2.23a5.8,5.8,0,0,0-5.23-.06c-2.15,1.22-2.6,3.52-3.12,5.65l-3.31,13.42C333.08,32.71,337.54,33.67,338.28,30.66Z"/><path class="cls-5" d="M340.4,6s0,0,0,.08S340,6.22,340.4,6Z"/><path class="cls-5" d="M189.52,90.07c5.24-1,9-6,9.14-11.25a2.21,2.21,0,0,0-.63-1.66,11.33,11.33,0,0,0-7.4-9.3,11.55,11.55,0,0,0-12.73,4A11.78,11.78,0,0,0,177.37,85,12,12,0,0,0,189.52,90.07Zm-7.43-6.79a6.83,6.83,0,0,1-1-7.56A6.73,6.73,0,0,1,188,72.14a6.39,6.39,0,0,1,5.29,6.69,2.16,2.16,0,0,0,.38,1.41,7.1,7.1,0,0,1-4.09,4.83A7,7,0,0,1,182.09,83.28Z"/><path class="cls-3" d="M173.29,108v4.73c5.79-.8,11.63-1.38,17.41-1.86q9-.73,18.12-.94c3.08-.07,3.09-4.87,0-4.8a308.7,308.7,0,0,0-34.91,2.78Z"/><path class="cls-5" d="M213.43,156c.91,7.44-2.79,14.64-8.66,19.11-5.05,3.85-11.22,5.76-17.48,6.47v4.83a46.71,46.71,0,0,0,8.08-1.5c8.24-2.32,15.94-7.3,20-15a23.71,23.71,0,0,0,2.83-13.9,2.49,2.49,0,0,0-2.41-2.4A2.42,2.42,0,0,0,213.43,156Z"/><path class="cls-11" d="M197.81,152a9,9,0,0,1,.29-9.24,13.51,13.51,0,0,1,8.76-5.65c4-.86,8.43-.09,12.29-1.86,3.46-1.58,6.17-4.65,6-8.63-.13-3.1-4.92-2.67-4.79.41.14,3.23-4.25,4.39-6.78,4.64-4.36.43-8.57.43-12.6,2.45a16.12,16.12,0,0,0-8.26,8.88,13.55,13.55,0,0,0,1.19,11.81C195.56,157.46,199.46,154.65,197.81,152Z"/><path class="cls-8" d="M239.9,22.9c.9-2.71-3.37-3.87-4.26-1.18-1.4,4.21-6.26,6.42-10.46,5.84-5-.69-9-4.52-11.32-8.8-2.79-5.18-3.26-11-4.15-16.67-.86-5.46-3-10.56-7.81-13.58a16.34,16.34,0,0,0-15.8-.79c-2.54,1.27-.3,5.09,2.23,3.81A11.89,11.89,0,0,1,200.52-7.1C205-3.73,205.32,2.32,206,7.41c.81,5.87,2.37,11.86,6,16.66,3.38,4.44,8.43,7.77,14.13,8C232.12,32.29,238,28.61,239.9,22.9Z"/><path class="cls-12" d="M217.1,217.87A114.38,114.38,0,0,0,241,210.11a2.22,2.22,0,0,0,.79-3,2.26,2.26,0,0,0-3-.79A109.29,109.29,0,0,1,218,213.17c-1.5.34-3.3,1-4.85.75-1.26-.18-1.71-1.57-2.2-2.58q-2.43-5-4.48-10.21a2.28,2.28,0,0,0-2.72-1.54,2.21,2.21,0,0,0-1.54,2.72c1.55,3.94,3.23,7.84,5.11,11.64a7.36,7.36,0,0,0,3.91,4C213.1,218.67,215.17,218.26,217.1,217.87Z"/><path class="cls-11" d="M202.67,34.68c0-2.85-4.42-2.85-4.42,0S202.67,37.53,202.67,34.68Z"/><path class="cls-8" d="M310.78,93.32c0-2.85-4.42-2.85-4.42,0S310.78,96.16,310.78,93.32Z"/><path class="cls-12" d="M218.74,66.47c5.88-3.45,5.85-12.43,4.74-18.22a2.21,2.21,0,0,0-4.27,1.17,20.91,20.91,0,0,1,0,8.7c-.41,1.75-1.23,4-3,4.75a5.73,5.73,0,0,1-3.61-.13c-1.59-.42-3.15-.94-4.73-1.41l-9.71-3c-2.73-.83-3.9,3.43-1.18,4.26L208.3,66.1C211.69,67.14,215.41,68.43,218.74,66.47Z"/><path class="cls-3" d="M47.85,529.57a2.45,2.45,0,0,0,3.39-.25,37.31,37.31,0,0,1,18.69-10.24,30.9,30.9,0,0,1,21.47,3.16,57.55,57.55,0,0,1,12.07,9.46c2.22,2.15,5.36-1.49,3.15-3.64-6.78-6.58-14.69-12.49-24.24-14a39.24,39.24,0,0,0-23.65,4,42.16,42.16,0,0,0-11.13,8.16A2.43,2.43,0,0,0,47.85,529.57Z"/><path class="cls-4" d="M62.21,363.41a2.31,2.31,0,0,0,1-.57,2.27,2.27,0,0,0,.65-1.56v-.53a1.81,1.81,0,0,0-.19-.86,1.75,1.75,0,0,0-.46-.71,1.63,1.63,0,0,0-.71-.45,1.69,1.69,0,0,0-.85-.2l-.59.08a2.31,2.31,0,0,0-1,.57,2.33,2.33,0,0,0-.64,1.57v.53a1.56,1.56,0,0,0,.19.85,1.72,1.72,0,0,0,.45.71,1.65,1.65,0,0,0,.71.46,1.7,1.7,0,0,0,.86.19Z"/><path class="cls-6" d="M128.74,523.61q-1.49,2.6-2.75,5.31c-.78,1.67-1.65,3.43-1.44,5.33.42,4,4.85,4.91,8.14,4.65a41.53,41.53,0,0,0,13.49-3.53c2.2-1,1.28-4-.63-4.24a74.36,74.36,0,0,0-7.53-7.74c-1.33-1.17-3-3.07-4.84-3.3C130.84,519.79,129.71,521.89,128.74,523.61Zm6.07,2.83c.94.81,1.85,1.64,2.73,2.51q1.82,1.78,3.49,3.7a37.51,37.51,0,0,1-4.42,1.21c-2.08.43-4.68,1.11-6.79.51-.47-.13-.87-.34-.9-.69-.09-1,.79-2.3,1.19-3.16.56-1.21,1.16-2.41,1.8-3.59.3-.55.63-1.36,1.05-2a2.43,2.43,0,0,1,.29.21C133.78,525.56,134.3,526,134.81,526.44Z"/><path class="cls-5" d="M170,556.56l-6.55-10.82c-.52-.87-1.05-1.72-1.56-2.59a4.13,4.13,0,0,0-.35-.65c1.09-.41,2.39-.93,3.57-1.35a48.59,48.59,0,0,0,5.73-2.52v-5.46a42.86,42.86,0,0,1-5,2.44c-1.61.67-3.29,1.11-4.91,1.77a5.77,5.77,0,0,0-3.73,3.65c-.66,2.38.65,4.33,1.78,6.2l7.15,11.83C167.76,561.69,171.59,559.21,170,556.56Z"/><path class="cls-5" d="M98.23,111.73l-6.55-10.82c-.52-.86-1.06-1.72-1.56-2.59a4.21,4.21,0,0,0-.36-.65c1.09-.41,2.39-.93,3.57-1.35a48.73,48.73,0,0,0,5.74-2.52V88.34a43.75,43.75,0,0,1-4.95,2.45c-1.62.66-3.3,1.1-4.91,1.76a5.78,5.78,0,0,0-3.74,3.65c-.65,2.38.65,4.33,1.78,6.2l7.16,11.83C96,116.86,99.83,114.38,98.23,111.73Z"/><path class="cls-5" d="M98.23,398.74l-6.55-10.83c-.52-.86-1.06-1.71-1.56-2.58a4.21,4.21,0,0,0-.36-.65c1.09-.41,2.39-.93,3.57-1.36a47.06,47.06,0,0,0,5.74-2.51v-5.46a43.67,43.67,0,0,1-4.95,2.44c-1.62.67-3.3,1.11-4.91,1.76a5.8,5.8,0,0,0-3.74,3.66c-.65,2.38.65,4.33,1.78,6.2l7.16,11.83C96,403.87,99.83,401.39,98.23,398.74Z"/><path class="cls-5" d="M157.44,552.54a.19.19,0,0,0,0,.08C157.42,552.76,157,552.72,157.44,552.54Z"/><path class="cls-7" d="M167.75,515.14a2.42,2.42,0,0,0,1.68-2.95,25.59,25.59,0,0,0-8.31-12.07,17.9,17.9,0,0,0-14.64-3.42c-3,.67-1.74,5.3,1.28,4.64,8.1-1.78,14.57,5.15,17,12.13A2.46,2.46,0,0,0,167.75,515.14Z"/><path class="cls-5" d="M280.28,371.63a2.42,2.42,0,0,0,2.07-2.69,25.6,25.6,0,0,0-6.55-13.1,17.87,17.87,0,0,0-14-5.42c-3.09.23-2.47,5,.62,4.76,8.27-.63,13.71,7.13,15.18,14.38A2.46,2.46,0,0,0,280.28,371.63Z"/><path class="cls-8" d="M55.81,563.49c-.4-2.28-.7-4.6-1.06-6.9-.86-5.45-3-10.55-7.81-13.57a16.32,16.32,0,0,0-15.79-.8c-2.55,1.28-.31,5.1,2.23,3.82a11.89,11.89,0,0,1,12.19,1.37c4.44,3.37,4.79,9.42,5.49,14.5.07.53.16,1.05.24,1.58Z"/><path class="cls-3" d="M47.85,529.57a2.45,2.45,0,0,0,3.39-.25,37.31,37.31,0,0,1,18.69-10.24,30.9,30.9,0,0,1,21.47,3.16,57.55,57.55,0,0,1,12.07,9.46c2.22,2.15,5.36-1.49,3.15-3.64-6.78-6.58-14.69-12.49-24.24-14a39.24,39.24,0,0,0-23.65,4,42.16,42.16,0,0,0-11.13,8.16A2.43,2.43,0,0,0,47.85,529.57Z"/><path class="cls-9" d="M148.43,478.08a98,98,0,0,0,12.12-5.42c3.18-1.66,6.29-3.45,9.38-5.27v-5.58c-6.47,3.85-13,7.72-20,10.56a59.32,59.32,0,0,1-11.5,3.55,6.7,6.7,0,0,1-5.08-.86,29.63,29.63,0,0,1-4.29-3.55,70.13,70.13,0,0,1-9-10,2.47,2.47,0,0,0-3.29-.86A2.42,2.42,0,0,0,116,464a78,78,0,0,0,8.6,9.92c3,2.92,6.45,6.42,10.81,6.94a19.08,19.08,0,0,0,6.91-.84A62.86,62.86,0,0,0,148.43,478.08Z"/><path class="cls-5" d="M157.12,437.26a15.12,15.12,0,0,0,1-13.6c-1.59-3.83-4.84-6.64-8.17-9s-6.79-4.13-9.56-7a14.49,14.49,0,0,1-4.15-9.49,15.06,15.06,0,0,1,3.75-11,2.46,2.46,0,0,0,.19-3.39,2.41,2.41,0,0,0-3.39-.19,20.28,20.28,0,0,0-3.13,23c2,3.72,5.22,6.42,8.64,8.75,3.24,2.2,6.82,4.13,9.43,7.1a10.29,10.29,0,0,1,1.36,12.13C151.53,437.27,155.54,439.92,157.12,437.26Z"/><path class="cls-7" d="M167.75,515.14a2.42,2.42,0,0,0,1.68-2.95,25.59,25.59,0,0,0-8.31-12.07,17.9,17.9,0,0,0-14.64-3.42c-3,.67-1.74,5.3,1.28,4.64,8.1-1.78,14.57,5.15,17,12.13A2.46,2.46,0,0,0,167.75,515.14Z"/><path class="cls-9" d="M133.45,504.73c0-3.09-4.81-3.09-4.81,0S133.45,507.83,133.45,504.73Z"/><path class="cls-9" d="M147.89,366.43c2.45-4.2,2.44-9.4,1.31-14a25.49,25.49,0,0,0-4.23-9,32.38,32.38,0,0,1,3.28-2.2c4.62-2.72,10.12-3.82,15.21-1.75a2.41,2.41,0,0,0,2.95-1.68,2.45,2.45,0,0,0-1.68-2.95c-8.12-3.31-16.3-.06-22.86,5l-.77-.72c-3.82-3.42-8.07-6.2-10.56-10.84a20.74,20.74,0,0,1,7-27.06c2.59-1.67.18-5.84-2.43-4.15A25.38,25.38,0,0,0,128,333.31c2.83,3.9,6.78,6.47,10.24,9.72q-1.08,1-2.07,2.1c-3.54,3.83-6.61,8.38-7,13.73a12.28,12.28,0,0,0,6.93,11.72C140.63,372.57,145.46,370.58,147.89,366.43Zm-13-3.41c-2-3.77-.15-8.09,2.09-11.3a36.51,36.51,0,0,1,4.39-5.15,21.3,21.3,0,0,1,3.59,8.88c.53,3.31.28,7.53-2.31,10S136.39,365.84,134.85,363Z"/><path class="cls-10" d="M133.2,438.22a4,4,0,0,0,.15-.45,10.26,10.26,0,0,0,0-11.34,10,10,0,0,0-11.49-4,11.31,11.31,0,0,0-8,9.86,11,11,0,0,0,6.84,11C125.27,445.05,131.24,442.82,133.2,438.22Zm-10,1.24c-2.75-.39-4.66-3-4.93-5.67a6.61,6.61,0,0,1,3.71-6.64,5.82,5.82,0,0,1,7,.81c1.79,1.87,2.41,5.27.86,7.27a3.19,3.19,0,0,0-.49.88A5.89,5.89,0,0,1,123.19,439.46Z"/><path class="cls-4" d="M115.11,557.78a2.31,2.31,0,0,0,1-.57,2.27,2.27,0,0,0,.65-1.56v-.54a1.79,1.79,0,0,0-.19-.85,2,2,0,0,0-1.17-1.17,1.79,1.79,0,0,0-.85-.19l-.59.08a2.2,2.2,0,0,0-1.62,2.13v.54a1.58,1.58,0,0,0,.19.85,1.72,1.72,0,0,0,.45.71,1.75,1.75,0,0,0,.71.46,1.81,1.81,0,0,0,.86.19Z"/><path class="cls-5" d="M68.43,600.57a17.71,17.71,0,0,0,4.15-12.81c-.33-4.29-2.54-8-4.55-11.68s-3.54-7.29-2.66-11.52a20,20,0,0,1,6.52-10.51c3.25-2.81,7.38-4.75,11.76-4.31,2.82.28,3.46-4.09.63-4.38-9.22-.93-17.57,5.53-21.52,13.48A18,18,0,0,0,61.69,573c1.42,4,4.1,7.46,5.61,11.44A13.22,13.22,0,0,1,65,597.82C63.11,600,66.58,602.72,68.43,600.57Z"/><path class="cls-5" d="M155.33,317.67l3-12.28c.25-1,.47-2,.73-2.94a4.77,4.77,0,0,0,.21-.7c1.06.47,2.35,1,3.48,1.56a47.91,47.91,0,0,0,4.88,2l3.85-3.86a39,39,0,0,1-4.26-1.48c-1.62-.67-3.11-1.54-4.72-2.22a5.78,5.78,0,0,0-5.22-.06c-2.15,1.22-2.61,3.52-3.13,5.65l-3.31,13.42C150.13,319.72,154.59,320.68,155.33,317.67Z"/><path class="cls-5" d="M157.44,293a.19.19,0,0,0,0,.08C157.42,293.26,157,293.22,157.44,293Z"/><path class="cls-5" d="M32.41,474.3c5.24-1,9-6,9.14-11.25a2.16,2.16,0,0,0-.63-1.67,11.3,11.3,0,0,0-7.4-9.29,11.56,11.56,0,0,0-12.73,4,11.8,11.8,0,0,0-.52,13.18A12,12,0,0,0,32.41,474.3ZM25,467.51a6.83,6.83,0,0,1-1-7.57,6.7,6.7,0,0,1,6.87-3.57,6.37,6.37,0,0,1,5.29,6.69,2.16,2.16,0,0,0,.38,1.41,7.07,7.07,0,0,1-4.09,4.83A7,7,0,0,1,25,467.51Z"/><path class="cls-3" d="M-9.67,395v4.73c5.8-.8,11.63-1.39,17.42-1.86,6-.5,12.06-.8,18.11-.94,3.09-.07,3.1-4.87,0-4.81A311.43,311.43,0,0,0-9,394.94Z"/><path class="cls-11" d="M14.85,439.05a9,9,0,0,1,.3-9.25c1.87-3,5.34-4.92,8.75-5.64,4.05-.86,8.43-.09,12.29-1.86,3.46-1.59,6.17-4.66,6-8.63-.13-3.1-4.92-2.67-4.79.41.14,3.23-4.25,4.38-6.77,4.64-4.37.43-8.58.42-12.6,2.45A16.15,16.15,0,0,0,9.76,430,13.57,13.57,0,0,0,11,441.86C12.61,444.47,16.51,441.66,14.85,439.05Z"/><path class="cls-8" d="M56.94,578.62c.9-2.71-3.37-3.87-4.26-1.18-1.39,4.21-6.26,6.42-10.45,5.85-5-.69-9-4.53-11.32-8.81-2.8-5.17-3.26-11-4.16-16.67-.86-5.46-2.95-10.56-7.81-13.58a16.32,16.32,0,0,0-15.79-.79c-2.55,1.28-.31,5.09,2.23,3.82a11.89,11.89,0,0,1,12.19,1.37c4.44,3.36,4.79,9.42,5.49,14.5.8,5.87,2.37,11.86,6,16.66,3.38,4.44,8.43,7.77,14.13,8A13.94,13.94,0,0,0,56.94,578.62Z"/><path class="cls-12" d="M34.14,504.88a115,115,0,0,0,23.93-7.76,2.23,2.23,0,0,0,.8-3,2.26,2.26,0,0,0-3-.8A108.39,108.39,0,0,1,35,500.18c-1.49.34-3.29,1-4.85.75-1.26-.18-1.71-1.58-2.2-2.58q-2.43-5-4.48-10.21a2.28,2.28,0,0,0-2.72-1.54,2.23,2.23,0,0,0-1.54,2.72c1.56,3.93,3.23,7.84,5.11,11.63a7.31,7.31,0,0,0,3.92,4C30.14,505.68,32.22,505.27,34.14,504.88Z"/><path class="cls-11" d="M19.71,321.69c0-2.85-4.42-2.85-4.42,0S19.71,324.53,19.71,321.69Z"/><path class="cls-8" d="M127.82,380.32c0-2.84-4.42-2.85-4.42,0S127.82,383.17,127.82,380.32Z"/><path class="cls-12" d="M35.79,353.48c5.87-3.45,5.84-12.43,4.73-18.22a2.22,2.22,0,0,0-2.72-1.55,2.25,2.25,0,0,0-1.54,2.72,21.25,21.25,0,0,1,0,8.7c-.42,1.75-1.23,4-3.06,4.75a5.8,5.8,0,0,1-3.61-.13c-1.58-.42-3.15-.94-4.72-1.42l-9.72-3c-2.73-.83-3.89,3.44-1.17,4.27l11.4,3.47C28.74,354.14,32.45,355.44,35.79,353.48Z"/><path class="cls-3" d="M230.8,529.57a2.45,2.45,0,0,0,3.39-.25,37.34,37.34,0,0,1,18.7-10.24,30.87,30.87,0,0,1,21.46,3.16,57.87,57.87,0,0,1,12.08,9.46c2.22,2.15,5.36-1.49,3.14-3.64-6.77-6.58-14.68-12.49-24.23-14a39.27,39.27,0,0,0-23.66,4,42.28,42.28,0,0,0-11.12,8.16A2.43,2.43,0,0,0,230.8,529.57Z"/><path class="cls-4" d="M245.17,363.41a2.37,2.37,0,0,0,1-.57,2.31,2.31,0,0,0,.64-1.56v-.53a1.7,1.7,0,0,0-.19-.86,1.72,1.72,0,0,0-.45-.71,1.6,1.6,0,0,0-.72-.45,1.64,1.64,0,0,0-.85-.2l-.59.08a2.33,2.33,0,0,0-1,.57,2.3,2.3,0,0,0-.65,1.57v.53a2.27,2.27,0,0,0,2.21,2.21Z"/><path class="cls-4" d="M59.89,78.88a2.27,2.27,0,0,0,1-.57,2.31,2.31,0,0,0,.64-1.56v-.53a1.64,1.64,0,0,0-.19-.85,1.69,1.69,0,0,0-.45-.72,1.76,1.76,0,0,0-.72-.45A1.54,1.54,0,0,0,59.3,74l-.59.08a2.21,2.21,0,0,0-1,.56,2.31,2.31,0,0,0-.65,1.57v.53A2.27,2.27,0,0,0,59.3,79Z"/><path class="cls-4" d="M294.71,126.1a2.22,2.22,0,0,0,1.63-2.13v-.54a1.79,1.79,0,0,0-.19-.85,1.65,1.65,0,0,0-.46-.71,1.75,1.75,0,0,0-.71-.46,1.79,1.79,0,0,0-.85-.19l-.59.08a2.2,2.2,0,0,0-1.62,2.13V124a1.58,1.58,0,0,0,.19.85,2,2,0,0,0,1.17,1.17,1.74,1.74,0,0,0,.85.19Z"/><path class="cls-6" d="M311.69,523.61q-1.47,2.6-2.75,5.31c-.77,1.67-1.64,3.43-1.44,5.33.42,4,4.85,4.91,8.14,4.65a41.59,41.59,0,0,0,13.5-3.53c2.19-1,1.27-4-.63-4.24a74.46,74.46,0,0,0-7.54-7.74c-1.32-1.17-3-3.07-4.84-3.3C313.8,519.79,312.66,521.89,311.69,523.61Zm6.08,2.83c.93.81,1.84,1.64,2.73,2.51q1.81,1.78,3.49,3.7a37.14,37.14,0,0,1-4.43,1.21c-2.08.43-4.68,1.11-6.78.51-.47-.13-.87-.34-.91-.69-.08-1,.79-2.3,1.2-3.16.56-1.21,1.16-2.41,1.79-3.59.31-.55.63-1.36,1.05-2a2.59,2.59,0,0,1,.3.21C316.73,525.56,317.25,526,317.77,526.44Z"/><path class="cls-5" d="M340.4,552.54s0,.05,0,.08S340,552.72,340.4,552.54Z"/><path class="cls-7" d="M350.71,515.14a2.42,2.42,0,0,0,1.68-2.95,25.73,25.73,0,0,0-8.31-12.07,17.92,17.92,0,0,0-14.64-3.42c-3,.67-1.75,5.3,1.27,4.64,8.11-1.78,14.57,5.15,17,12.13A2.45,2.45,0,0,0,350.71,515.14Z"/><path class="cls-5" d="M207.87,533.61a2.42,2.42,0,0,0,2.08-2.69,25.7,25.7,0,0,0-6.55-13.11,17.9,17.9,0,0,0-14-5.42c-3.08.24-2.46,5,.62,4.77,8.28-.63,13.72,7.13,15.19,14.38A2.46,2.46,0,0,0,207.87,533.61Z"/><path class="cls-8" d="M238.77,563.49c-.4-2.28-.7-4.6-1.06-6.9-.86-5.45-3-10.55-7.81-13.57a16.34,16.34,0,0,0-15.8-.8c-2.54,1.28-.3,5.1,2.23,3.82a11.89,11.89,0,0,1,12.19,1.37c4.45,3.37,4.8,9.42,5.49,14.5.08.53.16,1.05.25,1.58Z"/><path class="cls-3" d="M230.8,529.57a2.45,2.45,0,0,0,3.39-.25,37.34,37.34,0,0,1,18.7-10.24,30.87,30.87,0,0,1,21.46,3.16,57.87,57.87,0,0,1,12.08,9.46c2.22,2.15,5.36-1.49,3.14-3.64-6.77-6.58-14.68-12.49-24.23-14a39.27,39.27,0,0,0-23.66,4,42.28,42.28,0,0,0-11.12,8.16A2.43,2.43,0,0,0,230.8,529.57Z"/><path class="cls-9" d="M331.39,478.08a97.9,97.9,0,0,0,12.11-5.42c3.18-1.66,6.29-3.45,9.38-5.27v-5.58c-6.46,3.85-13,7.72-20,10.56a59.32,59.32,0,0,1-11.5,3.55,6.68,6.68,0,0,1-5.07-.86,29.1,29.1,0,0,1-4.29-3.55,70.13,70.13,0,0,1-9-10,2.48,2.48,0,0,0-3.29-.86,2.41,2.41,0,0,0-.86,3.29,77.25,77.25,0,0,0,8.6,9.92c3,2.92,6.44,6.42,10.8,6.94a19.14,19.14,0,0,0,6.92-.84A62.86,62.86,0,0,0,331.39,478.08Z"/><path class="cls-5" d="M340.08,437.26a15.16,15.16,0,0,0,1-13.6c-1.59-3.83-4.85-6.64-8.18-9s-6.79-4.13-9.55-7a14.49,14.49,0,0,1-4.15-9.49,15.06,15.06,0,0,1,3.75-11,2.47,2.47,0,0,0,.19-3.39,2.41,2.41,0,0,0-3.39-.19,20.28,20.28,0,0,0-3.13,23c2,3.72,5.22,6.42,8.64,8.75,3.23,2.2,6.82,4.13,9.43,7.1a10.28,10.28,0,0,1,1.35,12.13C334.48,437.27,338.49,439.92,340.08,437.26Z"/><path class="cls-7" d="M350.71,515.14a2.42,2.42,0,0,0,1.68-2.95,25.73,25.73,0,0,0-8.31-12.07,17.92,17.92,0,0,0-14.64-3.42c-3,.67-1.75,5.3,1.27,4.64,8.11-1.78,14.57,5.15,17,12.13A2.45,2.45,0,0,0,350.71,515.14Z"/><path class="cls-9" d="M316.41,504.73c0-3.09-4.81-3.09-4.81,0S316.41,507.83,316.41,504.73Z"/><path class="cls-6" d="M44.48,85.89c-1.92.53-3.83,1.13-5.7,1.81S35.19,89,34,90.45c-2.52,3.12,0,6.9,2.47,9a41.39,41.39,0,0,0,12,7c2.24.87,3.73-1.93,2.55-3.44a73.46,73.46,0,0,0,.14-10.8c-.1-1.77.06-4.28-1.08-5.76C48.67,84.68,46.38,85.36,44.48,85.89Zm2.29,6.3c.09,1.23.15,2.46.16,3.7,0,1.7,0,3.39-.15,5.08a37.45,37.45,0,0,1-4-2.26c-1.77-1.17-4.09-2.53-5.16-4.44-.23-.43-.37-.86-.15-1.13.64-.76,2.19-1.06,3.08-1.39,1.26-.46,2.53-.89,3.81-1.27.61-.18,1.41-.52,2.17-.68,0,.13.05.25.06.36C46.67,90.83,46.73,91.51,46.77,92.19Z"/><path class="cls-9" d="M78.25,144.68c2.18-2.19-1.21-5.59-3.4-3.4S76.06,146.87,78.25,144.68Z"/><path class="cls-6" d="M244.52,154.69c-1.92.54-3.82,1.13-5.7,1.82-1.73.63-3.58,1.26-4.78,2.74-2.53,3.12,0,6.91,2.46,9.05a41.55,41.55,0,0,0,12,7c2.24.86,3.73-1.93,2.55-3.45a73.32,73.32,0,0,0,.15-10.79c-.11-1.77.06-4.29-1.09-5.76C248.71,153.49,246.43,154.16,244.52,154.69Zm2.3,6.3c.09,1.23.14,2.47.15,3.7,0,1.7,0,3.4-.15,5.09a34.86,34.86,0,0,1-4-2.27c-1.78-1.17-4.09-2.53-5.16-4.44-.24-.42-.38-.86-.15-1.12.64-.77,2.18-1.07,3.08-1.4,1.25-.46,2.52-.88,3.8-1.26.61-.18,1.42-.52,2.17-.68a2.57,2.57,0,0,1,.06.35C246.71,159.63,246.77,160.31,246.82,161Z"/><path class="cls-9" d="M261.2,144.68c2.19-2.19-1.21-5.59-3.4-3.4S259,146.87,261.2,144.68Z"/><path class="cls-6" d="M44.48,372.9c-1.92.53-3.83,1.13-5.7,1.81S35.19,376,34,377.46c-2.52,3.12,0,6.9,2.47,9.05a41.62,41.62,0,0,0,12,7c2.24.86,3.73-1.93,2.55-3.44a73.46,73.46,0,0,0,.14-10.8c-.1-1.77.06-4.28-1.08-5.76C48.67,371.69,46.38,372.37,44.48,372.9Zm2.29,6.29c.09,1.24.15,2.47.16,3.71,0,1.7,0,3.39-.15,5.08a35.87,35.87,0,0,1-4-2.27c-1.77-1.16-4.09-2.52-5.16-4.44-.23-.42-.37-.85-.15-1.12.64-.76,2.19-1.07,3.08-1.39,1.26-.46,2.53-.89,3.81-1.27.61-.18,1.41-.52,2.17-.68,0,.13.05.25.06.35C46.67,377.84,46.73,378.52,46.77,379.19Z"/><path class="cls-9" d="M78.25,431.69c2.18-2.19-1.21-5.59-3.4-3.4S76.06,433.88,78.25,431.69Z"/><path class="cls-6" d="M244.52,441.7c-1.92.53-3.82,1.13-5.7,1.82-1.73.63-3.58,1.26-4.78,2.74-2.53,3.12,0,6.9,2.46,9.05a41.78,41.78,0,0,0,12,7.05c2.24.86,3.73-1.94,2.55-3.45a73.46,73.46,0,0,0,.15-10.8c-.11-1.77.06-4.28-1.09-5.76C248.71,440.49,246.43,441.17,244.52,441.7Zm2.3,6.3c.09,1.23.14,2.47.15,3.7,0,1.7,0,3.39-.15,5.09a38.15,38.15,0,0,1-4-2.27c-1.78-1.17-4.09-2.53-5.16-4.44-.24-.43-.38-.86-.15-1.12.64-.77,2.18-1.07,3.08-1.4,1.25-.46,2.52-.89,3.8-1.27.61-.17,1.42-.51,2.17-.67a2.33,2.33,0,0,1,.06.35C246.71,446.64,246.77,447.32,246.82,448Z"/><path class="cls-9" d="M261.2,431.69c2.19-2.19-1.21-5.59-3.4-3.4S259,433.88,261.2,431.69Z"/><path class="cls-9" d="M330.85,366.43c2.45-4.2,2.44-9.4,1.31-14a25.84,25.84,0,0,0-4.23-9,31.29,31.29,0,0,1,3.28-2.2c4.62-2.72,10.11-3.82,15.2-1.75a2.42,2.42,0,0,0,3-1.68,2.45,2.45,0,0,0-1.68-2.95c-8.12-3.31-16.3-.06-22.86,5l-.77-.72c-3.83-3.42-8.08-6.2-10.57-10.84a20.75,20.75,0,0,1,7-27.06c2.59-1.67.19-5.84-2.42-4.15a25.61,25.61,0,0,0-11.78,23.22,25.91,25.91,0,0,0,4.66,13c2.82,3.9,6.78,6.47,10.23,9.72-.71.69-1.4,1.39-2.06,2.1-3.54,3.83-6.62,8.38-7,13.73a12.26,12.26,0,0,0,6.93,11.72C323.58,372.57,328.42,370.58,330.85,366.43Zm-13-3.41c-2.05-3.77-.15-8.09,2.08-11.3a36.51,36.51,0,0,1,4.39-5.15,21.19,21.19,0,0,1,3.6,8.88c.53,3.31.27,7.53-2.31,10S319.34,365.84,317.81,363Z"/><path class="cls-10" d="M316.15,438.22a2.69,2.69,0,0,0,.16-.45,10.26,10.26,0,0,0,0-11.34,10,10,0,0,0-11.49-4,11.32,11.32,0,0,0-8,9.86,11.05,11.05,0,0,0,6.84,11C308.22,445.05,314.2,442.82,316.15,438.22Zm-10,1.24c-2.75-.39-4.66-3-4.94-5.67a6.64,6.64,0,0,1,3.71-6.64,5.81,5.81,0,0,1,7,.81c1.8,1.87,2.42,5.27.86,7.27a3.15,3.15,0,0,0-.48.88A5.9,5.9,0,0,1,306.15,439.46Z"/><path class="cls-4" d="M298.07,557.78a2.23,2.23,0,0,0,1.62-2.13v-.54a1.68,1.68,0,0,0-.19-.85,1.65,1.65,0,0,0-.46-.71,1.68,1.68,0,0,0-.71-.46,1.74,1.74,0,0,0-.85-.19l-.59.08a2.33,2.33,0,0,0-1,.57,2.29,2.29,0,0,0-.65,1.56v.54a1.68,1.68,0,0,0,.19.85,1.65,1.65,0,0,0,.46.71,1.75,1.75,0,0,0,.71.46,1.77,1.77,0,0,0,.85.19Z"/><path class="cls-7" d="M296.58,338.27c2.94-3.28,2.25-8.34-.8-11.33a10.28,10.28,0,0,0-17.06,9.45,9.45,9.45,0,0,0,17.86,1.88ZM287,339.33a5.21,5.21,0,0,1-3.85-6.4,6.14,6.14,0,0,1,7.57-4.07c1.88.62,3.69,2.82,3.41,4.83A2,2,0,0,0,293,335C292.47,337.73,289.81,340,287,339.33Z"/><path class="cls-5" d="M251.38,600.57a17.71,17.71,0,0,0,4.15-12.81c-.32-4.29-2.53-8-4.55-11.68s-3.54-7.29-2.65-11.52a19.93,19.93,0,0,1,6.51-10.51c3.25-2.81,7.39-4.75,11.77-4.31,2.82.28,3.46-4.09.62-4.38-9.21-.93-17.57,5.53-21.52,13.48A18,18,0,0,0,244.65,573c1.42,4,4.09,7.46,5.61,11.44a13.24,13.24,0,0,1-2.34,13.4C246.06,600,249.53,602.72,251.38,600.57Z"/><path class="cls-5" d="M338.28,317.67l3-12.28c.24-1,.47-2,.73-2.94a3.79,3.79,0,0,0,.2-.7c1.07.47,2.35,1,3.49,1.56a46.12,46.12,0,0,0,4.88,2l3.85-3.86a39.88,39.88,0,0,1-4.27-1.48c-1.61-.67-3.11-1.54-4.71-2.22a5.8,5.8,0,0,0-5.23-.06c-2.15,1.22-2.6,3.52-3.12,5.65l-3.31,13.42C333.08,319.72,337.54,320.68,338.28,317.67Z"/><path class="cls-5" d="M340.4,293s0,0,0,.08S340,293.22,340.4,293Z"/><path class="cls-5" d="M189.52,377.08c5.24-1,9-6,9.14-11.25a2.19,2.19,0,0,0-.63-1.66,11.32,11.32,0,0,0-7.4-9.3,11.55,11.55,0,0,0-12.73,4,11.78,11.78,0,0,0-.53,13.18A12,12,0,0,0,189.52,377.08Zm-7.43-6.79a6.83,6.83,0,0,1-1-7.56,6.72,6.72,0,0,1,6.88-3.58,6.37,6.37,0,0,1,5.29,6.69,2.16,2.16,0,0,0,.38,1.41,7.1,7.1,0,0,1-4.09,4.83A7,7,0,0,1,182.09,370.29Z"/><path class="cls-3" d="M173.29,395v4.73c5.79-.8,11.63-1.39,17.41-1.86,6-.5,12.07-.8,18.12-.94,3.08-.07,3.09-4.87,0-4.81a311.05,311.05,0,0,0-34.91,2.79Z"/><path class="cls-5" d="M213.43,443c.91,7.44-2.79,14.64-8.66,19.11-5.05,3.85-11.22,5.76-17.48,6.47v4.83a47.68,47.68,0,0,0,8.08-1.5c8.24-2.33,15.94-7.3,20-15a23.73,23.73,0,0,0,2.83-13.9,2.48,2.48,0,0,0-2.41-2.4A2.41,2.41,0,0,0,213.43,443Z"/><path class="cls-11" d="M197.81,439.05c-1.76-2.77-1.38-6.52.29-9.25,1.87-3,5.34-4.92,8.76-5.64,4-.86,8.43-.09,12.29-1.86,3.46-1.59,6.17-4.66,6-8.63-.13-3.1-4.92-2.67-4.79.41.14,3.23-4.25,4.38-6.78,4.64-4.36.43-8.57.42-12.6,2.45a16.14,16.14,0,0,0-8.26,8.87,13.57,13.57,0,0,0,1.19,11.82C195.56,444.47,199.46,441.66,197.81,439.05Z"/><path class="cls-11" d="M47.41,153.38a9,9,0,0,1,6.75-6.33c3.47-.82,7.25.3,10.18,2.2,3.47,2.25,6,5.9,10,7.38,3.57,1.32,7.66,1.07,10.35-1.86,2.1-2.29-1.59-5.37-3.68-3.1s-6.1.1-8.07-1.51c-3.39-2.78-6.36-5.76-10.64-7.18a16.19,16.19,0,0,0-12.12.43,13.54,13.54,0,0,0-7.51,9.2C42,155.63,46.73,156.4,47.41,153.38Z"/><path class="cls-11" d="M230.37,96.85a8.94,8.94,0,0,1,6.74-6.33c3.47-.83,7.26.29,10.18,2.19,3.48,2.26,6,5.9,10,7.38,3.57,1.32,7.65,1.07,10.35-1.86,2.09-2.28-1.59-5.37-3.68-3.1s-6.11.1-8.07-1.51c-3.4-2.78-6.37-5.76-10.65-7.18a16.11,16.11,0,0,0-12.11.44,13.52,13.52,0,0,0-7.52,9.19C224.94,99.09,229.69,99.86,230.37,96.85Z"/><path class="cls-11" d="M47.41,440.39a9,9,0,0,1,6.75-6.33c3.47-.83,7.25.29,10.18,2.2,3.47,2.25,6,5.9,10,7.37,3.57,1.33,7.66,1.07,10.35-1.86,2.1-2.28-1.59-5.36-3.68-3.09s-6.1.09-8.07-1.51c-3.39-2.78-6.36-5.77-10.64-7.18a16.19,16.19,0,0,0-12.12.43,13.54,13.54,0,0,0-7.51,9.2C42,442.63,46.73,443.41,47.41,440.39Z"/><path class="cls-11" d="M230.37,383.85a9,9,0,0,1,6.74-6.33,13.55,13.55,0,0,1,10.18,2.2c3.48,2.25,6,5.9,10,7.38,3.57,1.32,7.65,1.07,10.35-1.86,2.09-2.29-1.59-5.37-3.68-3.1s-6.11.1-8.07-1.51c-3.4-2.78-6.37-5.76-10.65-7.18a16.16,16.16,0,0,0-12.11.43,13.56,13.56,0,0,0-7.52,9.2C224.94,386.1,229.69,386.87,230.37,383.85Z"/><path class="cls-8" d="M239.9,578.62c.9-2.71-3.37-3.87-4.26-1.18-1.4,4.21-6.26,6.42-10.46,5.85-5-.69-9-4.53-11.32-8.81-2.79-5.17-3.26-11-4.15-16.67-.86-5.46-3-10.56-7.81-13.58a16.34,16.34,0,0,0-15.8-.79c-2.54,1.28-.3,5.09,2.23,3.82a11.89,11.89,0,0,1,12.19,1.37c4.45,3.36,4.8,9.42,5.49,14.5.81,5.87,2.37,11.86,6,16.66,3.38,4.44,8.43,7.77,14.13,8A14,14,0,0,0,239.9,578.62Z"/><path class="cls-12" d="M217.1,504.88A115,115,0,0,0,241,497.12a2.22,2.22,0,0,0,.79-3,2.25,2.25,0,0,0-3-.8A108.62,108.62,0,0,1,218,500.18c-1.5.34-3.3,1-4.85.75-1.26-.18-1.71-1.58-2.2-2.58q-2.43-5-4.48-10.21a2.28,2.28,0,0,0-2.72-1.54,2.21,2.21,0,0,0-1.54,2.72c1.55,3.93,3.23,7.84,5.11,11.63a7.33,7.33,0,0,0,3.91,4C213.1,505.68,215.17,505.27,217.1,504.88Z"/><path class="cls-11" d="M202.67,321.69c0-2.85-4.42-2.85-4.42,0S202.67,324.53,202.67,321.69Z"/><path class="cls-8" d="M310.78,380.32c0-2.84-4.42-2.85-4.42,0S310.78,383.17,310.78,380.32Z"/><path class="cls-12" d="M218.74,353.48c5.88-3.45,5.85-12.43,4.74-18.22a2.23,2.23,0,0,0-2.72-1.55,2.26,2.26,0,0,0-1.55,2.72,20.91,20.91,0,0,1,0,8.7c-.41,1.75-1.23,4-3,4.75a5.8,5.8,0,0,1-3.61-.13c-1.59-.42-3.15-.94-4.73-1.42l-9.71-3c-2.73-.83-3.9,3.44-1.18,4.27l11.41,3.47C211.69,354.14,215.41,355.44,218.74,353.48Z"/><path class="cls-5" d="M90.49,222.41a17.69,17.69,0,0,0,4.15-12.8c-.32-4.3-2.53-8-4.55-11.69s-3.54-7.28-2.65-11.52A19.94,19.94,0,0,1,94,175.9c3.25-2.81,7.39-4.76,11.77-4.32,2.82.29,3.46-4.09.62-4.37-9.21-.93-17.57,5.53-21.52,13.48a18,18,0,0,0-1.06,14.13c1.42,4,4.09,7.46,5.61,11.44A13.24,13.24,0,0,1,87,219.66C85.17,221.83,88.64,224.57,90.49,222.41Z"/><path class="cls-5" d="M273.45,222.41a17.69,17.69,0,0,0,4.15-12.8c-.32-4.3-2.54-8-4.55-11.69s-3.54-7.28-2.66-11.52a20,20,0,0,1,6.52-10.5c3.25-2.81,7.39-4.76,11.76-4.32,2.83.29,3.47-4.09.63-4.37-9.22-.93-17.57,5.53-21.52,13.48a17.89,17.89,0,0,0-1.06,14.13c1.42,4,4.09,7.46,5.6,11.44a13.21,13.21,0,0,1-2.33,13.4C268.13,221.83,271.6,224.57,273.45,222.41Z"/><path class="cls-5" d="M90.49,509.42a17.7,17.7,0,0,0,4.15-12.8c-.32-4.3-2.53-8-4.55-11.69s-3.54-7.28-2.65-11.52A19.91,19.91,0,0,1,94,462.91c3.25-2.81,7.39-4.76,11.77-4.32,2.82.29,3.46-4.09.62-4.37-9.21-.93-17.57,5.53-21.52,13.47a18,18,0,0,0-1.06,14.14c1.42,4,4.09,7.46,5.61,11.44A13.24,13.24,0,0,1,87,506.67C85.17,508.84,88.64,511.57,90.49,509.42Z"/><path class="cls-5" d="M273.45,509.42a17.7,17.7,0,0,0,4.15-12.8c-.32-4.3-2.54-8-4.55-11.69s-3.54-7.28-2.66-11.52a20,20,0,0,1,6.52-10.5c3.25-2.81,7.39-4.76,11.76-4.32,2.83.29,3.47-4.09.63-4.37-9.22-.93-17.57,5.53-21.52,13.47a17.92,17.92,0,0,0-1.06,14.14c1.42,4,4.09,7.46,5.6,11.44a13.22,13.22,0,0,1-2.33,13.4C268.13,508.84,271.6,511.57,273.45,509.42Z"/><path class="cls-5" d="M9,269.56,2.43,258.73c-.52-.86-1.05-1.71-1.56-2.59a3.65,3.65,0,0,0-.35-.64c1.09-.42,2.39-.94,3.57-1.36a48.59,48.59,0,0,0,5.73-2.52v-5.46a42.93,42.93,0,0,1-4.95,2.45c-1.61.66-3.29,1.1-4.91,1.76A5.79,5.79,0,0,0-3.77,254c-.66,2.38.65,4.33,1.78,6.2l7.15,11.84C6.75,274.68,10.58,272.2,9,269.56Z"/><path class="cls-7" d="M6.74,228.14a2.44,2.44,0,0,0,1.68-3A25.59,25.59,0,0,0,.11,213.11a17.87,17.87,0,0,0-14.64-3.41c-3,.66-1.74,5.29,1.28,4.63,8.1-1.77,14.57,5.16,17,12.13A2.47,2.47,0,0,0,6.74,228.14Z"/><path class="cls-9" d="M-12.58,191.07A98,98,0,0,0-.46,185.66c3.18-1.67,6.29-3.45,9.38-5.27v-5.58c-6.47,3.84-13,7.71-20,10.55a59.53,59.53,0,0,1-11.5,3.55,6.74,6.74,0,0,1-5.08-.85,31,31,0,0,1-4.29-3.55,70.76,70.76,0,0,1-9-10,2.48,2.48,0,0,0-3.29-.86,2.43,2.43,0,0,0-.86,3.29,77.44,77.44,0,0,0,8.6,9.93c3,2.91,6.44,6.41,10.81,6.93a19.08,19.08,0,0,0,6.91-.84A62.86,62.86,0,0,0-12.58,191.07Z"/><path class="cls-7" d="M6.74,228.14a2.44,2.44,0,0,0,1.68-3A25.59,25.59,0,0,0,.11,213.11a17.87,17.87,0,0,0-14.64-3.41c-3,.66-1.74,5.29,1.28,4.63,8.1-1.77,14.57,5.16,17,12.13A2.47,2.47,0,0,0,6.74,228.14Z"/><path class="cls-9" d="M-13.12,79.42c2.45-4.2,2.44-9.4,1.31-14a25.49,25.49,0,0,0-4.23-9,32.38,32.38,0,0,1,3.28-2.2c4.62-2.72,10.12-3.82,15.2-1.75a2.41,2.41,0,0,0,3-1.68,2.45,2.45,0,0,0-1.68-2.95c-8.12-3.31-16.3-.06-22.86,5l-.77-.71C-23.73,48.72-28,45.94-30.48,41.3a20.76,20.76,0,0,1,7-27.06c2.59-1.67.18-5.83-2.43-4.15A25.65,25.65,0,0,0-37.68,33.31,25.87,25.87,0,0,0-33,46.3c2.82,3.9,6.78,6.48,10.24,9.72-.72.69-1.41,1.4-2.07,2.1-3.54,3.83-6.61,8.39-7,13.73a12.29,12.29,0,0,0,6.93,11.73C-20.38,85.57-15.55,83.57-13.12,79.42Zm-13-3.41c-2.05-3.77-.15-8.09,2.09-11.3a36.51,36.51,0,0,1,4.39-5.15,21.36,21.36,0,0,1,3.59,8.88c.53,3.31.28,7.53-2.31,10S-24.62,78.83-26.16,76Z"/><path class="cls-5" d="M-5.68,30.66l3-12.28c.24-1,.47-2,.73-2.93a5.31,5.31,0,0,0,.21-.71c1.06.47,2.35,1,3.48,1.56a47.91,47.91,0,0,0,4.88,2l3.85-3.85A43.7,43.7,0,0,1,6.23,13c-1.62-.67-3.11-1.55-4.72-2.23a5.78,5.78,0,0,0-5.22-.06c-2.15,1.22-2.61,3.52-3.13,5.65l-3.31,13.42C-10.88,32.71-6.42,33.67-5.68,30.66Z"/><path class="cls-7" d="M6.74,515.14a2.42,2.42,0,0,0,1.68-2.95A25.59,25.59,0,0,0,.11,500.12a17.91,17.91,0,0,0-14.64-3.42c-3,.67-1.74,5.3,1.28,4.64,8.1-1.78,14.57,5.15,17,12.13A2.46,2.46,0,0,0,6.74,515.14Z"/><path class="cls-9" d="M-12.58,478.08A98,98,0,0,0-.46,472.66c3.18-1.66,6.29-3.45,9.38-5.27v-5.58c-6.47,3.85-13,7.72-20,10.56a59.53,59.53,0,0,1-11.5,3.55,6.7,6.7,0,0,1-5.08-.86,29.63,29.63,0,0,1-4.29-3.55,70.13,70.13,0,0,1-9-10,2.47,2.47,0,0,0-3.29-.86A2.42,2.42,0,0,0-45,464a78,78,0,0,0,8.6,9.92c3,2.92,6.44,6.42,10.81,6.94a19.08,19.08,0,0,0,6.91-.84A62.86,62.86,0,0,0-12.58,478.08Z"/><path class="cls-7" d="M6.74,515.14a2.42,2.42,0,0,0,1.68-2.95A25.59,25.59,0,0,0,.11,500.12a17.91,17.91,0,0,0-14.64-3.42c-3,.67-1.74,5.3,1.28,4.64,8.1-1.78,14.57,5.15,17,12.13A2.46,2.46,0,0,0,6.74,515.14Z"/><path class="cls-9" d="M-13.12,366.43c2.45-4.2,2.44-9.4,1.31-14a25.49,25.49,0,0,0-4.23-9,32.38,32.38,0,0,1,3.28-2.2c4.62-2.72,10.12-3.82,15.2-1.75a2.41,2.41,0,0,0,3-1.68,2.45,2.45,0,0,0-1.68-2.95c-8.12-3.31-16.3-.06-22.86,5l-.77-.72c-3.82-3.42-8.07-6.2-10.57-10.84a20.76,20.76,0,0,1,7-27.06c2.59-1.67.18-5.84-2.43-4.15a25.65,25.65,0,0,0-11.78,23.22,25.91,25.91,0,0,0,4.66,13c2.82,3.9,6.78,6.47,10.24,9.72q-1.08,1-2.07,2.1c-3.54,3.83-6.61,8.38-7,13.73a12.28,12.28,0,0,0,6.93,11.72C-20.38,372.57-15.55,370.58-13.12,366.43Zm-13-3.41c-2.05-3.77-.15-8.09,2.09-11.3a36.51,36.51,0,0,1,4.39-5.15,21.3,21.3,0,0,1,3.59,8.88c.53,3.31.28,7.53-2.31,10S-24.62,365.84-26.16,363Z"/><path class="cls-5" d="M-5.68,317.67l3-12.28c.24-1,.47-2,.73-2.94a4.77,4.77,0,0,0,.21-.7c1.06.47,2.35,1,3.48,1.56a47.91,47.91,0,0,0,4.88,2l3.85-3.86A39,39,0,0,1,6.23,300c-1.62-.67-3.11-1.54-4.72-2.22a5.78,5.78,0,0,0-5.22-.06c-2.15,1.22-2.61,3.52-3.13,5.65l-3.31,13.42C-10.88,319.72-6.42,320.68-5.68,317.67Z"/><path class="cls-5" d="M170,.55l-6.55-10.83c-.52-.86-1.05-1.71-1.56-2.58a4.13,4.13,0,0,0-.35-.65c1.09-.41,2.39-.93,3.57-1.36a46.93,46.93,0,0,0,5.73-2.51v-5.46a42.86,42.86,0,0,1-5,2.44c-1.61.67-3.29,1.11-4.91,1.76A5.78,5.78,0,0,0,157.24-15c-.66,2.38.65,4.33,1.78,6.2l7.15,11.83C167.76,5.68,171.59,3.2,170,.55Z"/><path class="cls-8" d="M55.81,7.48c-.4-2.29-.7-4.6-1.06-6.9C53.89-4.87,51.8-10,46.94-13a16.3,16.3,0,0,0-15.79-.8C28.6-12.51,30.84-8.7,33.38-10A11.89,11.89,0,0,1,45.57-8.6C50-5.23,50.36.82,51.06,5.9c.07.53.16,1,.24,1.58Z"/><path class="cls-8" d="M238.77,7.48c-.4-2.29-.7-4.6-1.06-6.9-.86-5.45-3-10.55-7.81-13.57a16.31,16.31,0,0,0-15.8-.8c-2.54,1.28-.3,5.09,2.23,3.82A11.89,11.89,0,0,1,228.52-8.6C233-5.23,233.32.82,234,5.9c.08.53.16,1,.25,1.58Z"/><path class="cls-9" d="M72.76,118.52c2.18-2.19-1.21-5.59-3.4-3.4S70.57,120.71,72.76,118.52Z"/><path class="cls-9" d="M255.71,118.52c2.19-2.19-1.2-5.59-3.39-3.4S253.52,120.71,255.71,118.52Z"/><path class="cls-9" d="M72.76,405.53c2.18-2.19-1.21-5.59-3.4-3.4S70.57,407.72,72.76,405.53Z"/><path class="cls-9" d="M255.71,405.53c2.19-2.19-1.2-5.59-3.39-3.4S253.52,407.72,255.71,405.53Z"/><path class="cls-4" d="M115.11,289.06a2.12,2.12,0,0,0,1-.57,2.27,2.27,0,0,0,.65-1.56v-.53a1.74,1.74,0,0,0-.19-.85,1.68,1.68,0,0,0-.46-.71,1.65,1.65,0,0,0-.71-.46,1.68,1.68,0,0,0-.85-.19l-.59.08a2.12,2.12,0,0,0-1,.57,2.31,2.31,0,0,0-.64,1.56v.53a1.54,1.54,0,0,0,.19.85,2,2,0,0,0,1.16,1.17,1.7,1.7,0,0,0,.86.19Z"/><path class="cls-5" d="M82.43,329.85a17.69,17.69,0,0,0,4.15-12.8c-.33-4.3-2.54-8-4.55-11.69s-3.54-7.28-2.66-11.52a20,20,0,0,1,6.52-10.5c3.25-2.81,7.38-4.76,11.76-4.32,2.82.29,3.46-4.09.63-4.37-9.22-.93-17.57,5.53-21.52,13.48a17.94,17.94,0,0,0-1.07,14.13c1.42,4,4.1,7.46,5.61,11.44A13.21,13.21,0,0,1,79,327.1C77.11,329.27,80.58,332,82.43,329.85Z"/><path class="cls-8" d="M66.94,316.9c.9-2.7-3.37-3.86-4.26-1.17-1.39,4.2-6.26,6.42-10.45,5.84-5-.69-9-4.52-11.32-8.8-2.8-5.18-3.26-11-4.16-16.68-.86-5.45-3-10.55-7.81-13.57a16.32,16.32,0,0,0-15.79-.8c-2.55,1.28-.31,5.1,2.23,3.82a11.89,11.89,0,0,1,12.19,1.37c4.44,3.37,4.79,9.42,5.49,14.5.8,5.88,2.37,11.87,6,16.67,3.38,4.44,8.43,7.77,14.13,8A14,14,0,0,0,66.94,316.9Z"/><path class="cls-3" d="M334.3,108v4.73c5.79-.8,11.62-1.38,17.41-1.86q9-.73,18.12-.94c3.08-.07,3.09-4.87,0-4.8a308.7,308.7,0,0,0-34.91,2.78Z"/><path class="cls-3" d="M334.3,395v4.73c5.79-.8,11.62-1.39,17.41-1.86,6-.5,12.07-.8,18.12-.94,3.08-.07,3.09-4.87,0-4.81a311.05,311.05,0,0,0-34.91,2.79Z"/><path class="cls-4" d="M298.07,289.06a2.09,2.09,0,0,0,1-.57,2.27,2.27,0,0,0,.65-1.56v-.53a1.64,1.64,0,0,0-.19-.85,2,2,0,0,0-1.17-1.17,1.64,1.64,0,0,0-.85-.19l-.59.08a2.14,2.14,0,0,0-1,.57,2.27,2.27,0,0,0-.65,1.56v.53a1.64,1.64,0,0,0,.19.85,1.59,1.59,0,0,0,.46.71,2.43,2.43,0,0,0,1.56.65Z"/><path class="cls-5" d="M265.38,329.85a17.69,17.69,0,0,0,4.15-12.8c-.32-4.3-2.53-8-4.55-11.69s-3.54-7.28-2.65-11.52a19.94,19.94,0,0,1,6.51-10.5c3.25-2.81,7.39-4.76,11.77-4.32,2.82.29,3.46-4.09.62-4.37-9.21-.93-17.57,5.53-21.52,13.48a18,18,0,0,0-1.06,14.13c1.42,4,4.09,7.46,5.61,11.44a13.24,13.24,0,0,1-2.34,13.4C260.06,329.27,263.53,332,265.38,329.85Z"/><path class="cls-8" d="M249.9,316.9c.9-2.7-3.37-3.86-4.26-1.17-1.4,4.2-6.26,6.42-10.46,5.84-5-.69-9-4.52-11.32-8.8-2.79-5.18-3.26-11-4.15-16.68-.86-5.45-3-10.55-7.81-13.57a16.34,16.34,0,0,0-15.8-.8c-2.54,1.28-.3,5.1,2.23,3.82a11.89,11.89,0,0,1,12.19,1.37c4.45,3.37,4.8,9.42,5.49,14.5.81,5.88,2.37,11.87,6,16.67,3.38,4.44,8.43,7.77,14.13,8A14,14,0,0,0,249.9,316.9Z"/></g></svg>